{
  "accessors": [
    {
      "bufferView": 2,
      "componentType": 5126,
      "count": 880,
      "max": [
        38.16992950439453,
        41.545806884765625,
        43.92774963378906
      ],
      "min": [
        -38.169925689697266,
        -40.590057373046875,
        -35.57602310180664
      ],
      "type": "VEC3"
    },
    {
      "bufferView": 2,
      "byteOffset": 10560,
      "componentType": 5126,
      "count": 880,
      "max": [
        0.9999158382415771,
        0.9989873170852661,
        0.9997865557670593
      ],
      "min": [
        -0.9989510178565979,
        -0.9990873336791992,
        -0.9999380707740784
      ],
      "type": "VEC3"
    },
    {
      "bufferView": 1,
      "componentType": 5126,
      "count": 880,
      "max": [
        0.9900000095367432,
        0.9788910746574402
      ],
      "min": [
        0.009999999776482582,
        0.009999999776482582
      ],
      "type": "VEC2"
    },
    {
      "bufferView": 0,
      "componentType": 5125,
      "count": 4674,
      "type": "SCALAR"
    }
  ],
  "asset": {
    "extras": {
      "author": "TahirNilin (https://sketchfab.com/TahirNilin)",
      "license": "CC-BY-4.0 (http://creativecommons.org/licenses/by/4.0/)",
      "source": "https://sketchfab.com/3d-models/apple-643eb66651864bb78871e5c1066b4ef6",
      "title": "Apple"
    },
    "generator": "Sketchfab-12.67.0",
    "version": "2.0"
  },
  "bufferViews": [
    {
      "buffer": 0,
      "byteLength": 18696,
      "name": "floatBufferViews",
      "target": 34963
    },
    {
      "buffer": 0,
      "byteLength": 7040,
      "byteOffset": 18696,
      "byteStride": 8,
      "name": "floatBufferViews",
      "target": 34962
    },
    {
      "buffer": 0,
      "byteLength": 21120,
      "byteOffset": 25736,
      "byteStride": 12,
      "name": "floatBufferViews",
      "target": 34962
    }
  ],
  "buffers": [
    {
      "byteLength": 46856,
      "uri": "scene.bin"
    }
  ],
  "images": [
    {
      "uri": "textures/Material_35_baseColor.png"
    }
  ],
  "materials": [
    {
      "doubleSided": true,
      "name": "Material_35",
      "pbrMetallicRoughness": {
        "baseColorTexture": {
          "index": 0
        },
        "metallicFactor": 0.0,
        "roughnessFactor": 0.6
      }
    }
  ],
  "meshes": [
    {
      "name": "apple_low_obj_Material #35_0",
      "primitives": [
        {
          "attributes": {
            "NORMAL": 1,
            "POSITION": 0,
            "TEXCOORD_0": 2
          },
          "indices": 3,
          "material": 0,
          "mode": 4
        }
      ]
    }
  ],
  "nodes": [
    {
      "children": [
        1
      ],
      "matrix": [
        1.0,
        0.0,
        0.0,
        0.0,
        0.0,
        2.220446049250313e-16,
        -1.0,
        0.0,
        0.0,
        1.0,
        2.220446049250313e-16,
        0.0,
        0.0,
        0.0,
        0.0,
        1.0
      ],
      "name": "Sketchfab_model"
    },
    {
      "children": [
        2
      ],
      "matrix": [
        1.0,
        0.0,
        0.0,
        0.0,
        0.0,
        0.0,
        1.0,
        0.0,
        0.0,
        -1.0,
        0.0,
        0.0,
        0.0,
        0.0,
        0.0,
        1.0
      ],
      "name": "4721ce27a7d5455693bf2ce2348453a9.fbx"
    },
    {
      "children": [
        3
      ],
      "name": "RootNode"
    },
    {
      "children": [
        4
      ],
      "matrix": [
        -0.9999999999999962,
        8.742277669594044e-08,
        -1.2246465878873718e-16,
        0.0,
        1.3078007658931367e-14,
        1.5099580241706434e-07,
        0.9999999999999887,
        0.0,
        8.742277669593946e-08,
        0.9999999999999849,
        -1.5099580252808664e-07,
        0.0,
        24.367088317871094,
        -39.753116607666016,
        -43.14609146118164,
        1.0
      ],
      "name": "HeroObjectGroup"
    },
    {
      "children": [
        5
      ],
      "matrix": [
        1.0,
        -7.025792437124636e-30,
        3.172654161012588e-23,
        0.0,
        7.025792437124636e-30,
        1.0,
        0.0,
        0.0,
        -3.172654161012588e-23,
        2.2290409610054247e-52,
        1.0,
        0.0,
        24.36709213256836,
        43.146095275878906,
        39.753108978271484,
        1.0
      ],
      "name": "apple_low_obj"
    },
    {
      "mesh": 0,
      "name": "apple_low_obj_Material #35_0"
    }
  ],
  "samplers": [
    {
      "magFilter": 9729,
      "minFilter": 9987,
      "wrapS": 10497,
      "wrapT": 10497
    }
  ],
  "scene": 0,
  "scenes": [
    {
      "name": "Sketchfab_Scene",
      "nodes": [
        0
      ]
    }
  ],
  "textures": [
    {
      "sampler": 0,
      "source": 0
    }
  ]
}
